<?xml version="1.0" encoding="UTF-8" standalone="no"?>
<!-- Created with Inkscape (http://www.inkscape.org/) -->

<svg
   xmlns:dc="http://purl.org/dc/elements/1.1/"
   xmlns:cc="http://creativecommons.org/ns#"
   xmlns:rdf="http://www.w3.org/1999/02/22-rdf-syntax-ns#"
   xmlns:svg="http://www.w3.org/2000/svg"
   xmlns="http://www.w3.org/2000/svg"
   xmlns:sodipodi="http://sodipodi.sourceforge.net/DTD/sodipodi-0.dtd"
   xmlns:inkscape="http://www.inkscape.org/namespaces/inkscape"
   width="210mm"
   height="297mm"
   viewBox="0 0 210 297"
   version="1.1"
   id="svg8"
   inkscape:version="0.92.3 (2405546, 2018-03-11)"
   sodipodi:docname="logo.svg">
  <defs
     id="defs2" />
  <sodipodi:namedview
     id="base"
     pagecolor="#ffffff"
     bordercolor="#666666"
     borderopacity="1.0"
     inkscape:pageopacity="0.0"
     inkscape:pageshadow="2"
     inkscape:zoom="0.67616487"
     inkscape:cx="320"
     inkscape:cy="635.71429"
     inkscape:document-units="mm"
     inkscape:current-layer="layer1"
     showgrid="false"
     inkscape:window-width="1366"
     inkscape:window-height="683"
     inkscape:window-x="0"
     inkscape:window-y="25"
     inkscape:window-maximized="1" />
  <metadata
     id="metadata5">
    <rdf:RDF>
      <cc:Work
         rdf:about="">
        <dc:format>image/svg+xml</dc:format>
        <dc:type
           rdf:resource="http://purl.org/dc/dcmitype/StillImage" />
        <dc:title />
      </cc:Work>
    </rdf:RDF>
  </metadata>
  <g
     inkscape:label="Layer 1"
     inkscape:groupmode="layer"
     id="layer1">
    <g
       id="g143">
      <rect
         inkscape:export-ydpi="23.630772"
         inkscape:export-xdpi="23.630772"
         y="49.952862"
         x="20.448511"
         height="137.58333"
         width="137.58333"
         id="rect66"
         style="fill:none;stroke:none;stroke-width:0.26458332" />
      <text
         xml:space="preserve"
         style="font-style:normal;font-weight:normal;font-size:42.15958786px;line-height:1.25;font-family:sans-serif;letter-spacing:0px;word-spacing:0px;fill:#ffffff;fill-opacity:1;stroke:none;stroke-width:1.05398965"
         x="146.77344"
         y="87.616417"
         id="text51"
         transform="scale(0.59756779,1.6734503)"><tspan
           sodipodi:role="line"
           id="tspan49"
           x="146.77344"
           y="87.616417"
           style="font-weight:bold;fill:#ffffff;stroke-width:1.05398965">MM</tspan></text>
      <path
         inkscape:connector-curvature="0"
         id="path17"
         d="m 108.23699,145.27236 a 28.472994,38.589393 5.2096346 0 1 -1.64703,3.26434 28.472994,38.589393 5.2096346 0 1 -1.87152,3.04385 28.472994,38.589393 5.2096346 0 1 -2.07784,2.79391 28.472994,38.589393 5.2096346 0 1 -2.26268,2.5152 28.472994,38.589393 5.2096346 0 1 -2.425518,2.21144 28.472994,38.589393 5.2096346 0 1 -2.56387,1.88604 28.472994,38.589393 5.2096346 0 1 -2.67704,1.54145 28.472994,38.589393 5.2096346 0 1 -2.76267,1.18139 28.472994,38.589393 5.2096346 0 1 -2.82113,0.80989 28.472994,38.589393 5.2096346 0 1 -2.851348,0.4302 28.472994,38.589393 5.2096346 0 1 -2.853091,0.0458 28.472994,38.589393 5.2096346 0 1 -2.82644,-0.33895 28.472994,38.589393 5.2096346 0 1 -2.771505,-0.71994 28.472994,38.589393 5.2096346 0 1 -2.688755,-1.09368 28.472994,38.589393 5.2096346 0 1 -2.579208,-1.4571 28.472994,38.589393 5.2096346 0 1 -1.7457,-1.24282 28.472994,38.589393 5.2096346 0 1 -2.332897,-2.04167 28.472994,38.589393 5.2096346 0 1 -2.157307,-2.35711 28.472994,38.589393 5.2096346 0 1 -1.959466,-2.64901 28.472994,38.589393 5.2096346 0 1 -1.742327,-2.91491 28.472994,38.589393 5.2096346 0 1 -1.50762,-3.15183 28.472994,38.589393 5.2096346 0 1 -1.257916,-3.35648 28.472994,38.589393 5.2096346 0 1 -0.995801,-3.52806 28.472994,38.589393 5.2096346 0 1 -0.72354,-3.66395 28.472994,38.589393 5.2096346 0 1 -0.444101,-3.76411 28.472994,38.589393 5.2096346 0 1 -0.160434,-3.82604 28.472994,38.589393 5.2096346 0 1 0.12534,-3.84994 28.472994,38.589393 5.2096346 0 1 0.409242,-3.83508 28.472994,38.589393 5.2096346 0 1 0.689753,-3.78215 28.472994,38.589393 5.2096346 0 1 0.962671,-3.69158 28.472994,38.589393 5.2096346 0 1 1.226577,-3.56347 28.472994,38.589393 5.2096346 0 1 1.020898,-2.42642 29.141853,46.40455 15.0028 0 0 5.31883,60.16376 29.141853,46.40455 15.0028 0 0 42.953443,-22.63301 z"
         style="fill:#ffff00;stroke-width:0.21099737" />
      <path
         id="path10"
         d="m 109.97453,69.583516 a 29.141854,46.40455 15.0028 0 0 -42.953338,22.63358 28.472995,38.589394 5.2096352 0 1 1.647033,-3.264346 28.472995,38.589394 5.2096352 0 1 1.871674,-3.044209 28.472995,38.589394 5.2096352 0 1 2.077684,-2.793555 28.472995,38.589394 5.2096352 0 1 2.262678,-2.515193 28.472995,38.589394 5.2096352 0 1 2.425682,-2.211797 28.472995,38.589394 5.2096352 0 1 2.563876,-1.886041 28.472995,38.589394 5.2096352 0 1 2.676603,-1.541301 28.472995,38.589394 5.2096352 0 1 2.762826,-1.18174 28.472995,38.589394 5.2096352 0 1 2.820974,-0.80954 28.472995,38.589394 5.2096352 0 1 2.85162,-0.429992 28.472995,38.589394 5.2096352 0 1 2.85309,-0.04584 28.472995,38.589394 5.2096352 0 1 2.8266,0.338597 28.472995,38.589394 5.2096352 0 1 2.77124,0.719734 28.472995,38.589394 5.2096352 0 1 2.688588,1.094029 28.472995,38.589394 5.2096352 0 1 2.57937,1.456747 28.472995,38.589394 5.2096352 0 1 1.74554,1.243175 28.472995,38.589394 5.2096352 0 1 2.33333,2.04153 28.472995,38.589394 5.2096352 0 1 2.15703,2.356894 28.472995,38.589394 5.2096352 0 1 1.95958,2.649578 28.472995,38.589394 5.2096352 0 1 1.74233,2.914911 28.472995,38.589394 5.2096352 0 1 1.50751,3.151259 28.472995,38.589394 5.2096352 0 1 1.25818,3.356698 28.472995,38.589394 5.2096352 0 1 0.9958,3.528053 28.472995,38.589394 5.2096352 0 1 0.72338,3.664303 28.472995,38.589394 5.2096352 0 1 0.4441,3.76412 28.472995,38.589394 5.2096352 0 1 0.16017,3.82583 28.472995,38.589394 5.2096352 0 1 -0.12491,3.84979 28.472995,38.589394 5.2096352 0 1 -0.40968,3.83522 28.472995,38.589394 5.2096352 0 1 -0.68932,3.78202 28.472995,38.589394 5.2096352 0 1 -0.96294,3.69136 28.472995,38.589394 5.2096352 0 1 -1.22647,3.56404 28.472995,38.589394 5.2096352 0 1 -1.0209,2.42642 29.141854,46.40455 15.0028 0 0 -5.31893,-60.164332 z"
         style="fill:#ff0000;stroke-width:0.21099737"
         inkscape:connector-curvature="0" />
      <text
         transform="scale(0.59756779,1.6734503)"
         id="text45"
         y="87.616417"
         x="64.54528"
         style="font-style:normal;font-weight:normal;font-size:42.15958786px;line-height:1.25;font-family:sans-serif;letter-spacing:0px;word-spacing:0px;fill:#000000;fill-opacity:1;stroke:none;stroke-width:1.05398965"
         xml:space="preserve"><tspan
           style="font-weight:bold;stroke-width:1.05398965"
           y="87.616417"
           x="64.54528"
           id="tspan43"
           sodipodi:role="line">ICO</tspan></text>
    </g>
  </g>
</svg>
